<svg width="1900" height="600" viewBox="0 0 1900 600" fill="none" xmlns="http://www.w3.org/2000/svg">
<rect width="1900" height="600" fill="#060606"/>
<path d="M618.764 396.263C612.259 396.263 606.254 394.595 600.75 391.259C595.246 387.923 590.826 383.503 587.49 377.999C584.154 372.495 582.486 366.49 582.486 359.985V287.428C582.486 280.923 584.154 274.918 587.49 269.414C590.826 263.909 595.246 259.489 600.75 256.153C606.254 252.817 612.259 251.149 618.764 251.149H693.323C699.995 251.149 706.083 252.817 711.587 256.153C717.091 259.489 721.428 263.909 724.597 269.414C727.933 274.918 729.601 280.923 729.601 287.428V359.985C729.601 366.49 727.933 372.495 724.597 377.999C721.428 383.503 717.091 387.923 711.587 391.259C706.083 394.595 699.995 396.263 693.323 396.263H618.764ZM620.766 357.983H691.321V289.429H620.766V357.983ZM756.468 396.263V251.149H931.105C937.777 251.149 943.865 252.817 949.369 256.153C954.874 259.489 959.21 263.909 962.379 269.414C965.715 274.918 967.383 280.923 967.383 287.428V396.263H929.354V289.429H881.316V396.263H842.786V289.429H794.748V396.263H756.468ZM1036.57 396.263C1030.07 396.263 1024.06 394.595 1018.56 391.259C1013.05 387.923 1008.63 383.503 1005.3 377.999C1001.96 372.495 1000.29 366.49 1000.29 359.985V287.428C1000.29 280.923 1001.96 274.918 1005.3 269.414C1008.63 263.909 1013.05 259.489 1018.56 256.153C1024.06 252.817 1030.07 251.149 1036.57 251.149H1111.13C1117.8 251.149 1123.89 252.817 1129.4 256.153C1134.9 259.489 1139.24 263.909 1142.41 269.414C1145.74 274.918 1147.41 280.923 1147.41 287.428V359.985C1147.41 366.49 1145.74 372.495 1142.41 377.999C1139.24 383.503 1134.9 387.923 1129.4 391.259C1123.89 394.595 1117.8 396.263 1111.13 396.263H1036.57ZM1038.57 357.983H1109.13V289.429H1038.57V357.983ZM1165.43 396.263V383.753L1215.47 322.455L1165.43 263.659V251.149H1204.71L1240.24 293.182L1275.52 251.149H1315.05V263.659L1265.01 322.455L1315.05 383.753V396.263H1275.77L1240.24 352.729L1204.71 396.263H1165.43ZM1360.68 448.304V409.774H1446.75V396.263H1374.19C1367.52 396.263 1361.43 394.595 1355.93 391.259C1350.42 387.923 1346 383.503 1342.67 377.999C1339.33 372.495 1337.66 366.49 1337.66 359.985V251.65H1375.94V357.983H1446.75V251.65H1485.03V412.026C1485.03 418.697 1483.36 424.786 1480.03 430.29C1476.86 435.794 1472.52 440.131 1467.02 443.3C1461.51 446.636 1455.42 448.304 1448.75 448.304H1360.68ZM1511.94 396.263V356.982L1599.26 289.429H1511.94V251.149H1659.06V290.43L1571.74 357.983H1659.06V396.263H1511.94Z" fill="white"/>
<path d="M258.434 431.448C279.002 431.448 295.676 414.774 295.676 394.206L295.676 206.006C295.676 185.439 279.002 168.765 258.434 168.765V168.765C237.867 168.765 221.193 185.439 221.193 206.006L221.193 394.206C221.193 414.774 237.867 431.448 258.434 431.448V431.448Z" fill="#0095FF"/>
<path d="M439.317 431.448C459.885 431.448 476.559 414.774 476.559 394.206L476.559 206.006C476.559 185.439 459.885 168.765 439.317 168.765V168.765C418.749 168.765 402.076 185.439 402.076 206.006L402.076 394.206C402.076 414.774 418.75 431.448 439.317 431.448V431.448Z" fill="#0095FF"/>
<rect x="390.264" y="209.97" width="180.272" height="84.1058" rx="42.0529" transform="rotate(90 390.264 209.97)" fill="#0095FF"/>
</svg>
