<svg width="1900" height="600" viewBox="0 0 1900 600" fill="none" xmlns="http://www.w3.org/2000/svg">
<path d="M657.461 395.263C650.956 395.263 644.952 393.595 639.447 390.259C633.943 386.923 629.523 382.503 626.187 376.999C622.851 371.495 621.183 365.49 621.183 358.985V286.428C621.183 279.923 622.851 273.918 626.187 268.414C629.523 262.909 633.943 258.489 639.447 255.153C644.952 251.817 650.956 250.149 657.461 250.149H732.02C738.692 250.149 744.78 251.817 750.284 255.153C755.789 258.489 760.125 262.909 763.294 268.414C766.63 273.918 768.298 279.923 768.298 286.428V358.985C768.298 365.49 766.63 371.495 763.294 376.999C760.125 382.503 755.789 386.923 750.284 390.259C744.78 393.595 738.692 395.263 732.02 395.263H657.461ZM659.463 356.983H730.018V288.429H659.463V356.983ZM795.165 395.263V250.149H969.802C976.474 250.149 982.562 251.817 988.066 255.153C993.571 258.489 997.908 262.909 1001.08 268.414C1004.41 273.918 1006.08 279.923 1006.08 286.428V395.263H968.051V288.429H920.013V395.263H881.483V288.429H833.445V395.263H795.165ZM1075.27 395.263C1068.76 395.263 1062.76 393.595 1057.26 390.259C1051.75 386.923 1047.33 382.503 1044 376.999C1040.66 371.495 1038.99 365.49 1038.99 358.985V286.428C1038.99 279.923 1040.66 273.918 1044 268.414C1047.33 262.909 1051.75 258.489 1057.26 255.153C1062.76 251.817 1068.76 250.149 1075.27 250.149H1149.83C1156.5 250.149 1162.59 251.817 1168.09 255.153C1173.6 258.489 1177.93 262.909 1181.1 268.414C1184.44 273.918 1186.11 279.923 1186.11 286.428V358.985C1186.11 365.49 1184.44 371.495 1181.1 376.999C1177.93 382.503 1173.6 386.923 1168.09 390.259C1162.59 393.595 1156.5 395.263 1149.83 395.263H1075.27ZM1077.27 356.983H1147.83V288.429H1077.27V356.983ZM1204.13 395.263V382.753L1254.17 321.455L1204.13 262.659V250.149H1243.41L1278.94 292.182L1314.22 250.149H1353.75V262.659L1303.71 321.455L1353.75 382.753V395.263H1314.47L1278.94 351.729L1243.41 395.263H1204.13ZM1399.38 447.304V408.774H1485.45V395.263H1412.89C1406.22 395.263 1400.13 393.595 1394.63 390.259C1389.12 386.923 1384.7 382.503 1381.37 376.999C1378.03 371.495 1376.36 365.49 1376.36 358.985V250.65H1414.64V356.983H1485.45V250.65H1523.73V411.026C1523.73 417.697 1522.06 423.786 1518.72 429.29C1515.55 434.794 1511.22 439.131 1505.71 442.3C1500.21 445.636 1494.12 447.304 1487.45 447.304H1399.38ZM1550.64 395.263V355.982L1637.96 288.429H1550.64V250.149H1697.76V289.43L1610.44 356.983H1697.76V395.263H1550.64Z" fill="#2A83C4"/>
<circle cx="374.5" cy="299.5" r="182.5" fill="#0095FF"/>
<path d="M315.765 392.824C329.14 392.824 339.982 381.981 339.982 368.606L339.982 231.085C339.982 217.71 329.14 206.867 315.765 206.867V206.867C302.39 206.867 291.547 217.71 291.547 231.085L291.547 368.606C291.547 381.981 302.39 392.824 315.765 392.824V392.824Z" fill="white"/>
<path d="M433.394 392.824C446.769 392.824 457.611 381.981 457.611 368.606L457.611 231.085C457.611 217.71 446.769 206.867 433.394 206.867V206.867C420.019 206.867 409.176 217.71 409.176 231.085L409.176 368.606C409.176 381.981 420.019 392.824 433.394 392.824V392.824Z" fill="white"/>
<rect x="401.492" y="236.037" width="127.617" height="54.693" rx="27.3465" transform="rotate(90 401.492 236.037)" fill="white"/>
</svg>
